<svg width="200" height="200" viewBox="0 0 200 200" fill="none" xmlns="http://www.w3.org/2000/svg">
  <!-- Body of M -->
  <path d="
    M 28 170
    C 18 170 14 162 14 150
    L 14 62
    C 14 36 34 16 60 16
    C 76 16 90 26 100 40
    C 110 26 124 16 140 16
    C 166 16 186 36 186 62
    L 186 150
    C 186 162 182 170 172 170
    C 162 170 156 162 156 150
    L 156 74
    C 156 56 148 44 136 44
    C 124 44 114 56 114 74
    L 114 140
    C 114 152 108 160 100 160
    C 92 160 86 152 86 140
    L 86 74
    C 86 56 76 44 64 44
    C 52 44 44 56 44 74
    L 44 150
    C 44 162 38 170 28 170
    Z
  " fill="#9B8AFB"/>
  <!-- Eyes -->
  <ellipse cx="64" cy="80" rx="9" ry="16" fill="white"/>
  <ellipse cx="136" cy="80" rx="9" ry="16" fill="white"/>
</svg>